<svg width="30" height="20" viewBox="0 0 30 20" fill="none" xmlns="http://www.w3.org/2000/svg">
<path id="Vector" d="M4.625 0C3.39837 0 2.22199 0.435403 1.35463 1.21043C0.487275 1.98545 0 3.0366 0 4.13265V4.95918H29.5951V4.13265C29.5951 3.0366 29.1078 1.98545 28.2404 1.21043C27.3731 0.435403 26.1967 0 24.9701 0H4.625ZM0 15.7041V6.61224H29.5951V15.7041C29.5951 16.8001 29.1078 17.8513 28.2404 18.6263C27.3731 19.4013 26.1967 19.8367 24.9701 19.8367H4.62623C3.39961 19.8367 2.22322 19.4013 1.35586 18.6263C0.488509 17.8513 0.00123354 16.8001 0.00123354 15.7041M20.0367 12.6735C19.7914 12.6735 19.5561 12.7605 19.3827 12.9156C19.2092 13.0706 19.1117 13.2808 19.1117 13.5C19.1117 13.7192 19.2092 13.9294 19.3827 14.0844C19.5561 14.2394 19.7914 14.3265 20.0367 14.3265H24.3534C24.5987 14.3265 24.834 14.2394 25.0075 14.0844C25.1809 13.9294 25.2784 13.7192 25.2784 13.5C25.2784 13.2808 25.1809 13.0706 25.0075 12.9156C24.834 12.7605 24.5987 12.6735 24.3534 12.6735H20.0367Z" fill="#007DF8"/>
</svg>
